<?xml version="1.0" encoding="utf-8"?>
<!-- Generator: Adobe Illustrator 23.0.1, SVG Export Plug-In . SVG Version: 6.00 Build 0)  -->
<svg version="1.1" id="Ebene_1" xmlns="http://www.w3.org/2000/svg" xmlns:xlink="http://www.w3.org/1999/xlink" x="0px" y="0px"
	 viewBox="0 0 111 89" style="enable-background:new 0 0 111 89;" xml:space="preserve">
<style type="text/css">
	.st0{fill:#FFFFFF;}
</style>
<g>
	<path class="st0" d="M100.99,29.12l-0.01-1.16c0.01-0.14,0.02-0.28,0.02-0.44c0-0.23-0.01-0.46-0.03-0.69v0l0,0
		C100.17,15.43,79.67,6.3,54.5,6.3c-25.17,0-45.67,9.13-46.47,20.52h0v0C8.01,27.05,8,27.28,8,27.52c0,0.11,0.01,0.23,0.02,0.34
		l-0.01,1.26C8.01,29.16,8,29.2,8,29.25c0,0.03,0,0.06,0,0.09l0,0.47h0.04c0.56,4.17,7.33,7.46,15.61,7.46
		c8.64,0,15.65-3.59,15.65-8.02c0.31-2.54-0.4-7.67-0.68-9.54c4.89-0.79,10.23-1.22,15.89-1.22c5.61,0,10.96,0.35,15.92,1.02
		c-0.25,1.66-1.03,7.1-0.71,9.74c0,4.43,7,8.02,15.65,8.02c8.27,0,15.04-3.29,15.61-7.46H101l0-0.47c0-0.03,0-0.06,0-0.09
		C101,29.2,101,29.16,100.99,29.12z"/>
	<path class="st0" d="M84.92,42.26c-9.85-1.31-17.73-10.29-17.73-10.29h-0.77v-9.76h-3.72v9.76H54.5h-8.21v-9.76h-3.72v9.76H41.8
		c0,0-7.88,8.97-17.73,10.29L14.22,71.6c0,0-4.38,11.16,16.2,11.16c20.58,0,24.08,0,24.08,0s3.5,0,24.08,0
		c20.58,0,16.2-11.16,16.2-11.16L84.92,42.26z M54.32,73.78c-9.85,0-17.84-7.99-17.84-17.84c0-9.85,7.99-17.84,17.84-17.84
		c9.85,0,17.84,7.99,17.84,17.84C72.16,65.8,64.17,73.78,54.32,73.78z"/>
	<path class="st0" d="M64.86,45.37c-1.41,0-2.55,1.14-2.55,2.55c0,1.41,1.14,2.55,2.55,2.55c1.41,0,2.55-1.14,2.55-2.55
		C67.4,46.51,66.26,45.37,64.86,45.37z"/>
</g>
</svg>
